<?xml version="1.0" encoding="UTF-8"?>
<!DOCTYPE svg PUBLIC "-//W3C//DTD SVG 1.1//EN" "http://www.w3.org/Graphics/SVG/1.1/DTD/svg11.dtd">
<!-- Creator: CorelDRAW -->
<svg xmlns="http://www.w3.org/2000/svg" xml:space="preserve" width="2048px" height="2048px" style="shape-rendering:geometricPrecision; text-rendering:geometricPrecision; image-rendering:optimizeQuality; fill-rule:evenodd; clip-rule:evenodd"
viewBox="0 0 2048 2048"
 xmlns:xlink="http://www.w3.org/1999/xlink">
 <defs>
  <style type="text/css">
   <![CDATA[
    .fil0 {fill:none}
    .fil1 {fill:#616161}
    .fil2 {fill:#9E9E9E}
    .fil3 {fill:#878787;fill-rule:nonzero}
    .fil5 {fill:#ACACAC;fill-rule:nonzero}
    .fil4 {fill:#B9B9B9;fill-rule:nonzero}
   ]]>
  </style>
 </defs>
 <g id="Layer_x0020_1">
  <metadata id="CorelCorpID_0Corel-Layer"/>
  <rect class="fil0" width="2048" height="2048"/>
  <rect class="fil0" x="255.999" y="255.999" width="1536" height="1536"/>
  <g id="_348164608">
   <g>
    <path id="_348165688" class="fil1" d="M1096.71 1551.55c0,48.5457 -19.6831,92.5076 -51.502,124.331 -31.8166,31.8201 -75.7725,51.5056 -124.317,51.5056 -48.4843,0 -92.3977,-19.7197 -124.247,-51.6012 -31.8036,-31.8331 -51.4512,-75.7666 -51.4512,-124.236 0,-48.4878 19.6441,-92.4154 51.4394,-124.243 31.852,-31.8815 75.7713,-51.5953 124.259,-51.5953 48.5492,0 92.5099,19.6772 124.329,51.4996 31.8118,31.8166 51.4902,75.7737 51.4902,124.338z"/>
    <path id="_348165448" class="fil2" d="M1008.8 1551.55c0,24.2646 -9.83741,46.2378 -25.7421,62.1437 -15.9024,15.9047 -37.8721,25.7445 -62.1355,25.7445 -24.2339,0 -46.1835,-9.85631 -62.1024,-25.7918 -15.8965,-15.9106 -25.7162,-37.8697 -25.7162,-62.0965 0,-24.2351 9.81851,-46.1906 25.7103,-62.0989 15.9201,-15.9354 37.8721,-25.7882 62.1083,-25.7882 24.2658,0 46.2378,9.83505 62.1414,25.741 15.9012,15.9024 25.7362,37.8733 25.7362,62.1461z"/>
   </g>
   <g>
    <path id="_348165304" class="fil1" d="M1551.82 1551.55c0,48.5457 -19.6831,92.5076 -51.502,124.331 -31.8166,31.8201 -75.7725,51.5056 -124.317,51.5056 -48.4843,0 -92.3977,-19.7197 -124.247,-51.6012 -31.8036,-31.8331 -51.4512,-75.7666 -51.4512,-124.236 0,-48.4878 19.6441,-92.4154 51.4394,-124.243 31.852,-31.8815 75.7713,-51.5953 124.259,-51.5953 48.5492,0 92.5099,19.6772 124.329,51.4996 31.8118,31.8166 51.4902,75.7737 51.4902,124.338z"/>
    <path id="_348165136" class="fil2" d="M1463.91 1551.55c0,24.2646 -9.83741,46.2378 -25.7421,62.1437 -15.9024,15.9047 -37.8721,25.7445 -62.1355,25.7445 -24.2339,0 -46.1835,-9.85631 -62.1024,-25.7918 -15.8965,-15.9106 -25.7162,-37.8697 -25.7162,-62.0965 0,-24.2351 9.81851,-46.1906 25.7103,-62.0989 15.9201,-15.9354 37.8721,-25.7882 62.1083,-25.7882 24.2658,0 46.2378,9.83505 62.1414,25.741 15.9012,15.9024 25.7362,37.8733 25.7362,62.1461z"/>
   </g>
   <path id="_348165016" class="fil3" d="M295.859 320.612l204.466 80.3753 16.5343 6.49961 3.21496 17.5004 142.668 776.508c3.36614,0.461811 8.54646,0.542126 14.4957,0.542126l23.7378 0 43.3252 0 -12.8256 41.3764 -51.2823 165.448 -0.499607 1.5c-0.496063,1.3689 -0.640158,2.81575 -0.452363,4.21772 0.197244,1.47284 0.72756,2.88425 1.56614,4.11024l0.0578741 -0.0401575c0.849213,1.20236 1.94055,2.15079 3.16181,2.78386 1.22835,0.636615 2.6811,0.983859 4.24725,0.983859l44.7048 0 0 64.0016 -44.7048 0c-11.7413,0 -23.2134,-2.90079 -33.4985,-8.23583 -10.2898,-5.33741 -19.3122,-13.0878 -26.1603,-22.7823l0 -0.125197c-6.8315,-9.75355 -11.0941,-20.8087 -12.6248,-32.1969 -1.50473,-11.191 -0.409843,-22.7256 3.42874,-33.6969l38.4733 -124.122c-8.12599,-0.826772 -15.8646,-2.48268 -23.3858,-5.71772 -17.7047,-7.61457 -29.817,-20.9941 -34.2166,-45.0555l-0.022441 0.00472441 -139.728 -760.504 -187.931 -73.8756 23.2512 -59.4993z"/>
   <path id="_348164920" class="fil4" d="M561.441 444.597l1172.7 50.967c22.089,12.1205 37.5048,34.2378 41.2548,59.1461l-237.924 703.264c-13.6677,9.96379 -30.267,15.7087 -47.7591,15.7087l-743.254 0 -185.014 -829.086z"/>
   <path id="_348164776" class="fil5" d="M1168.42 470.977l1.02284 0.0448819 564.698 24.5421c22.089,12.1205 37.5048,34.2378 41.2548,59.1461l-237.924 703.264c-13.6677,9.96379 -30.267,15.7087 -47.7591,15.7087l-321.168 0 -0.125197 0 0 -802.706z"/>
   <polygon id="_348164680" class="fil4" points="561.441,444.597 1168.42,470.977 1168.42,1273.68 746.455,1273.68 "/>
  </g>
 </g>
</svg>
